<?xml version="1.0" encoding="UTF-8"?>
<!DOCTYPE svg PUBLIC "-//W3C//DTD SVG 1.1//EN" "http://www.w3.org/Graphics/SVG/1.1/DTD/svg11.dtd">
<!-- Creator: CorelDRAW -->
<svg xmlns="http://www.w3.org/2000/svg" xml:space="preserve" width="137.659mm" height="51.9079mm" version="1.1" style="shape-rendering:geometricPrecision; text-rendering:geometricPrecision; image-rendering:optimizeQuality; fill-rule:evenodd; clip-rule:evenodd"
viewBox="0 0 13765.84 5190.79"
 xmlns:xlink="http://www.w3.org/1999/xlink"
 xmlns:xodm="http://www.corel.com/coreldraw/odm/2003">
 <defs>
  <style type="text/css">
   <![CDATA[
    .fil0 {fill:#F3F5F7;fill-rule:nonzero}
    .fil1 {fill:#FF2931;fill-rule:nonzero}
   ]]>
  </style>
 </defs>
 <g id="Layer_x0020_1">
  <metadata id="CorelCorpID_0Corel-Layer"/>
  <g id="_2530731601696">
   <path class="fil0" d="M3931.8 1643.99l0 1637.95 -327.8 0 -235.79 -236.06 -92.57 -92.84 0 -1309.05 656.16 0zm-981.23 -988.09l0 656.72c-161.85,0 -310.01,58.88 -424.48,156.38 -141.87,120.49 -232.24,299.87 -232.24,499.51l0 1313.43 -327.53 0 -115.57 -115.83 -212.79 -213.07 0 -984.53c0,-176.64 35.32,-345.34 99.14,-499.51 22.18,-53.96 48.2,-106.27 77.23,-156.38 82.15,-141.59 189.77,-266.75 317.12,-368.35 51.22,-41.35 105.44,-78.59 162.4,-111.46 193.35,-112.56 417.64,-176.91 656.72,-176.91zm3931.8 1312.61l0 1313.43 -655.89 0 0 -1313.43c0,-360.95 -294.95,-655.89 -656.72,-655.89 -361.76,0 -656.16,294.94 -656.16,655.89l0 1313.43 -328.36 0 -328.36 -328.9 0 -984.53c0,-238.54 64.35,-462.82 176.64,-655.89 115.29,-198.83 281.25,-364.79 480.08,-480.08 193.34,-112.29 417.35,-176.64 656.16,-176.64 239.08,0 463.37,64.35 656.72,176.91 198.54,115.3 364.5,281.26 479.52,479.81 112.01,193.07 176.37,417.35 176.37,655.89zm982.06 -324.52l0 1637.95 -327.53 0 -329.18 -328.9 0 -1309.05 656.71 0zm2773.94 -331.37c-115.3,-198.83 -281.27,-364.79 -480.08,-480.08 -193.08,-112.29 -417.09,-176.64 -655.91,-176.64 -239.07,0 -463.37,64.35 -656.71,176.91 -198.55,115.3 -364.5,281.26 -479.53,479.81 -112,193.07 -176.36,417.35 -176.36,655.89 0,239.09 64.36,463.37 176.36,656.72 115.3,198.55 280.98,364.51 479.53,479.8 193.34,112.55 417.64,176.91 656.71,176.91 238.82,0 462.83,-64.36 655.91,-176.64l0 504.46 329.18 328.36 327.54 0 0 -1969.61c0,-238.54 -64.36,-462.82 -176.64,-655.89zm-1792.7 655.89c0,-360.95 294.96,-655.89 656.71,-655.89 360.97,0 655.91,294.94 655.91,655.89 0,361.77 -294.94,656.72 -655.91,656.72 -361.75,0 -656.71,-294.95 -656.71,-656.72zm4920.18 0l-1969.6 0c0,361.77 295.22,656.72 656.71,656.72l0 656.71c-238.8,0 -463.37,-64.36 -656.71,-176.91 -198.55,-115.29 -364.23,-281.25 -479.53,-479.8 -112.02,-193.35 -176.37,-417.63 -176.37,-656.72 0,-238.54 64.35,-462.82 176.37,-655.89 115.3,-198.55 280.98,-364.51 479.53,-479.81 193.34,-112.56 417.91,-176.91 656.71,-176.91 238.8,0 462.83,64.35 656.18,176.64 198.81,115.29 364.77,281.25 480.07,480.08 112.28,193.07 176.64,417.35 176.64,655.89zm-13109.95 -655.89l0 655.89c0,361.77 294.95,656.72 656.72,656.72l0 656.71c-239.08,0 -463.37,-64.36 -656.72,-176.91 -198.54,-115.29 -364.23,-281.25 -479.52,-479.8 -112.01,-193.35 -176.37,-417.63 -176.37,-656.72l0 -1640.15 328.36 -328.36 327.53 0 0 655.9 656.72 0 0 656.72 -656.72 0z"/>
   <polygon class="fil1" points="3275.65,655.9 3275.65,1312.62 3931.81,1312.62 3931.81,985.08 3838.97,891.96 3603.45,655.9 "/>
   <polygon class="fil1" points="7864.42,655.9 7864.42,1312.62 7207.71,1312.62 7207.71,985.08 7536.89,655.9 "/>
   <polygon class="fil1" points="13109.12,2625.23 13109.12,3281.94 13436.65,3281.94 13672.73,3045.88 13765.83,2953.04 13765.83,2625.23 "/>
   <path class="fil0" d="M4732.28 5071.97l-18.87 16.98c-64.11,66.64 -142.09,99.96 -233.88,99.96 -45.25,0 -87.38,-8.46 -126.34,-25.44 -38.97,-16.98 -73.23,-40.55 -102.78,-70.75 -29.56,-30.15 -52.83,-65.35 -69.76,-105.6 -16.98,-40.26 -25.5,-82.98 -25.5,-128.23 0,-45.31 8.52,-88.32 25.5,-129.22 16.93,-40.84 40.2,-76.34 69.76,-106.54 29.55,-30.15 63.81,-54.07 102.78,-71.64 38.96,-17.63 81.09,-26.44 126.34,-26.44 82.97,0 155.9,28.32 218.78,84.86l18.86 16.98 -33.96 37.73 -18.87 -16.99c-51.53,-47.77 -113.12,-71.63 -184.81,-71.63 -37.73,0 -73.22,7.52 -106.54,22.62 -33.32,15.11 -62.23,35.5 -86.74,61.29 -24.5,25.8 -44.01,55.65 -58.47,89.56 -14.45,33.97 -21.68,70.4 -21.68,109.42 0,38.96 7.23,75.4 21.68,109.36 14.46,33.97 33.97,63.53 58.47,88.62 24.51,25.15 53.42,44.95 86.74,59.41 33.32,14.46 68.81,21.68 106.54,21.68 37.73,0 73.57,-7.22 107.54,-21.68 33.91,-14.46 64.11,-34.85 90.5,-61.29l16.98 -18.86 37.73 35.84zm175.41 116.94l-50.95 0 0 -412.99c0,-77.98 23.92,-139.57 71.69,-184.82 46.48,-44.01 106.84,-66.05 181.05,-66.05 62.82,0 115.65,15.75 158.43,47.19l20.75 15.04 -28.33 41.49 -20.74 -15.04c-36.43,-25.16 -79.8,-37.73 -130.11,-37.73 -62.87,0 -112.24,17.92 -148.08,53.71 -35.79,35.85 -53.71,84.56 -53.71,146.21l0 412.99zm548.8 -494.09c26.38,-52.83 62.23,-93.67 107.48,-122.58 45.31,-28.97 93.08,-45.31 143.33,-49.07 50.3,-3.76 99.66,4.7 148.08,25.44 48.37,20.75 88.91,53.77 121.65,99.02 15.04,20.16 19.45,42.43 13.16,66.99 -6.29,24.51 -20.75,41.79 -43.37,51.83l-450.72 207.44c20.09,46.55 48.07,82.69 83.91,108.48 35.85,25.74 74.52,41.78 116,48.07 41.49,6.29 82.98,3.18 124.47,-9.4 41.48,-12.58 77.33,-35.2 107.48,-67.93l18.86 -18.87 35.85 35.85c-49.01,51.54 -99.67,85.5 -151.85,101.84 -52.13,16.34 -102.43,19.8 -150.85,10.4 -48.42,-9.46 -92.44,-29.85 -131.98,-61.29 -39.61,-31.44 -70.76,-69.46 -93.38,-114.12 -22.63,-44.66 -34.91,-93.97 -36.79,-148.03 -1.88,-54.06 10.99,-108.77 38.67,-164.07zm277.25 -122.58c-41.49,0 -80.15,9.4 -116,28.26 -35.85,18.87 -65.99,44.66 -90.5,77.34 -24.56,32.67 -41.54,70.4 -50.95,113.12 -9.4,42.78 -8.46,87.38 2.82,133.92l445.09 -203.67c8.81,-3.76 14.45,-10.41 16.98,-19.81 2.53,-9.46 0.65,-17.92 -5.64,-25.44 -23.92,-32.73 -53.77,-58.18 -89.62,-76.4 -35.84,-18.21 -73.22,-27.32 -112.18,-27.32zm1001.41 597.81c-8.76,2.53 -15.69,5.64 -20.75,9.46 -6.29,2.47 -11.28,5 -15.04,7.52 -3.76,2.53 -6.29,3.76 -7.58,3.76 -3.76,-6.28 -7.82,-14.45 -12.23,-24.5 -4.4,-10.05 -8.81,-20.45 -13.22,-31.15 -4.4,-10.69 -8.46,-21.03 -12.28,-31.08 -3.76,-10.05 -6.29,-18.87 -7.52,-26.39 -10.05,15.05 -21.39,27.62 -33.97,37.67 -25.09,23.92 -54.06,42.13 -86.73,54.71 -32.68,12.58 -66.64,19.16 -101.84,19.8 -35.2,0.65 -69.76,-5.05 -103.72,-16.98 -33.97,-11.93 -64.76,-31.09 -92.44,-57.53 -37.67,-31.44 -62.52,-69.75 -74.45,-115 -11.93,-45.31 -12.28,-89.91 -0.94,-133.93 11.28,-44.01 33.32,-83.91 65.99,-119.76 32.67,-35.85 74.16,-61.29 124.46,-76.39 59.12,-17.57 115.36,-17.28 168.77,0.94 53.48,18.27 95.91,46.83 127.35,85.85l0 -86.79c0,-25.1 -12.93,-47.13 -38.67,-66 -25.8,-18.86 -57.53,-28.26 -95.26,-28.26l-24.5 0 0 -50.95 24.5 0c52.83,0 97.43,12.93 133.93,38.67 36.43,25.79 54.65,61.29 54.65,106.54l0 292.35c-1.24,31.44 0,58.77 3.82,82.04 3.76,23.27 7.81,43.07 12.22,59.41 4.41,16.33 9.11,29.85 14.16,40.54 5,10.7 8.82,19.16 11.29,25.45zm-96.14 -328.14c-10.05,-20.1 -23.92,-39.61 -41.49,-58.47 -17.63,-18.87 -38.67,-34.91 -63.17,-48.07 -24.57,-13.22 -51.6,-21.69 -81.1,-25.51 -29.56,-3.76 -60.7,-1.23 -93.37,7.59 -40.26,11.28 -72.64,29.85 -97.14,55.59 -24.51,25.79 -41.78,54.06 -51.83,84.91 -10.11,30.79 -12.93,62.82 -8.52,96.14 4.4,33.32 15.75,63.82 33.96,91.5 18.22,27.67 42.43,50.3 72.58,67.87 30.2,17.63 66.05,26.44 107.54,26.44 30.14,0 58.76,-5.34 85.79,-16.04 27.03,-10.69 50.6,-25.44 70.7,-44.31 20.15,-18.86 36.2,-40.55 48.12,-65.11 11.93,-24.5 17.93,-50.6 17.93,-78.21l0 -94.32zm641.24 281.01c-32.74,25.15 -62.24,42.43 -88.68,51.83 -26.39,9.46 -52.77,14.16 -79.21,14.16 -76.69,0 -138.92,-25.15 -186.7,-75.45 -51.54,-51.54 -77.33,-118.82 -77.33,-201.8l0 -537.46 50.95 0 0 150.85 333.78 0 0 50.95 -333.78 0 0 335.66c0,66.64 19.45,121.06 58.47,163.13 38.96,42.14 90.49,63.17 154.61,63.17 21.39,0 42.42,-4.05 63.17,-12.22 20.8,-8.17 45.6,-22.33 74.51,-42.43l30.21 39.61zm179.17 65.99l-50.95 0 0 -661.98 50.95 0 0 661.98zm-24.51 -926.01c11.29,0 20.75,4.12 28.27,12.28 7.52,8.17 11.34,17.93 11.34,29.21 0,10.11 -3.82,19.22 -11.34,27.38 -7.52,8.17 -16.98,12.23 -28.27,12.23 -11.34,0 -20.74,-4.06 -28.32,-12.23 -7.52,-8.16 -11.28,-17.27 -11.28,-27.38 0,-11.28 3.76,-21.04 11.28,-29.21 7.58,-8.16 16.98,-12.28 28.32,-12.28zm467.71 926.01c-6.29,0 -11.99,-1.58 -16.98,-4.7 -5.06,-3.17 -8.82,-7.87 -11.34,-14.16l-284.78 -645 56.59 0 256.51 586.53 258.33 -586.53 54.71 0 -282.89 645c-6.29,12.58 -16.34,18.86 -30.15,18.86zm478.99 -494.09c26.39,-52.83 62.23,-93.67 107.48,-122.58 45.31,-28.97 93.08,-45.31 143.33,-49.07 50.3,-3.76 99.66,4.7 148.08,25.44 48.37,20.75 88.91,53.77 121.65,99.02 15.04,20.16 19.45,42.43 13.16,66.99 -6.29,24.51 -20.74,41.79 -43.37,51.83l-450.72 207.44c20.1,46.55 48.07,82.69 83.91,108.48 35.85,25.74 74.52,41.78 116,48.07 41.49,6.29 82.98,3.18 124.47,-9.4 41.49,-12.58 77.33,-35.2 107.48,-67.93l18.86 -18.87 35.85 35.85c-49.01,51.54 -99.67,85.5 -151.85,101.84 -52.12,16.34 -102.43,19.8 -150.85,10.4 -48.42,-9.46 -92.43,-29.85 -131.98,-61.29 -39.61,-31.44 -70.76,-69.46 -93.38,-114.12 -22.62,-44.66 -34.91,-93.97 -36.79,-148.03 -1.88,-54.06 10.99,-108.77 38.67,-164.07zm277.25 -122.58c-41.49,0 -80.15,9.4 -116,28.26 -35.85,18.87 -65.99,44.66 -90.5,77.34 -24.56,32.67 -41.54,70.4 -50.95,113.12 -9.4,42.78 -8.46,87.38 2.82,133.92l445.09 -203.67c8.81,-3.76 14.45,-10.41 16.98,-19.81 2.53,-9.46 0.65,-17.92 -5.64,-25.44 -23.92,-32.73 -53.77,-58.18 -89.62,-76.4 -35.84,-18.21 -73.22,-27.32 -112.18,-27.32zm882.59 284.77c30.14,23.86 49.95,54.06 59.41,90.5 9.4,36.49 7.22,72.93 -6.59,109.36 -18.86,45.31 -52.82,79.86 -101.83,103.78 -40.26,18.86 -86.15,28.26 -137.69,28.26 -20.16,0 -41.49,-1.88 -64.11,-5.64 -66.64,-7.58 -128.28,-28.32 -184.87,-62.23l-22.63 -13.22 26.45 -43.37 20.74 13.22c50.24,30.15 105.6,49.01 165.95,56.53 64.11,7.58 117.88,2.82 161.25,-14.1 43.37,-16.98 73.22,-44.37 89.56,-82.04 10.05,-25.15 11.93,-50.65 5.7,-76.39 -6.29,-25.8 -20.16,-46.83 -41.55,-63.17 -21.33,-16.34 -45.84,-26.09 -73.51,-29.27 -27.68,-3.11 -57.24,-5.93 -88.68,-8.46 -36.43,-2.52 -72.87,-6.93 -109.36,-13.22 -36.43,-6.29 -67.29,-23.27 -92.38,-50.89 -18.86,-17.63 -30.5,-40.9 -34.9,-69.81 -4.41,-28.91 -0.94,-56.59 10.34,-82.98 6.29,-17.57 16.33,-33.32 30.2,-47.13 13.81,-13.87 29.56,-25.79 47.13,-35.84 38.96,-22.63 89.91,-33.97 152.79,-33.97 70.4,0 135.75,16.98 196.1,50.95l22.62 11.28 -24.5 45.31 -22.63 -11.34c-52.77,-30.15 -110,-45.25 -171.59,-45.25 -47.78,0 -87.38,7.52 -118.82,22.62 -31.44,15.11 -52.83,36.44 -64.11,64.12 -8.82,18.86 -11.35,37.43 -7.58,55.65 3.76,18.21 10.69,32.38 20.74,42.42 18.86,18.87 43.37,30.8 73.57,35.85 30.15,5 62.23,8.82 96.2,11.28 32.67,2.53 65.7,6 99.02,10.4 33.32,4.41 63.17,16.63 89.56,36.79z"/>
   <polygon class="fil1" points="10845.36,4752.76 10351.21,4752.76 10351.21,4701.87 10845.36,4701.87 "/>
   <polygon class="fil1" points="3414.6,4752.76 2920.45,4752.76 2920.45,4701.87 3414.6,4701.87 "/>
  </g>
 </g>
</svg>
